<svg xmlns="http://www.w3.org/2000/svg" viewBox="0 0 24 24" width="24" height="24" fill="#e6eef8"><path d="M12 .5C5.73.5.5 5.73.5 12c0 5.08 3.29 9.39 7.86 10.91.58.11.79-.25.79-.56 0-.28-.01-1.02-.02-2-3.2.69-3.88-1.54-3.88-1.54-.53-1.36-1.3-1.72-1.3-1.72-1.06-.72.08-.71.08-.71 1.17.08 1.79 1.2 1.79 1.2 1.04 1.78 2.72 1.27 3.38.97.11-.77.41-1.27.75-1.56-2.56-.29-5.26-1.28-5.26-5.69 0-1.25.45-2.26 1.19-3.06-.12-.29-.52-1.47.11-3.06 0 0 .97-.31 3.18 1.18a11.03 11.03 0 012.9-.39c.98 0 1.97.13 2.9.39 2.2-1.49 3.17-1.18 3.17-1.18.64 1.59.24 2.77.12 3.06.74.8 1.18 1.81 1.18 3.06 0 4.42-2.71 5.4-5.29 5.68.42.36.79 1.09.79 2.2 0 1.59-.01 2.87-.01 3.26 0 .31.21.68.8.56A10.52 10.52 0 0023.5 12C23.5 5.73 18.27.5 12 .5z"/></svg>